<svg width="138" height="22" xmlns="http://www.w3.org/2000/svg" xmlns:xlink="http://www.w3.org/1999/xlink" viewBox="0 0 138 22"><defs><path id="a" d="M0 0h109.764v22H0z"/><path id="c" d="M0 0h22v22H0z"/></defs><g fill="none" fill-rule="evenodd"><mask id="b" fill="#fff"><use xlink:href="#a"/></mask><path d="M33.878 10.627h7.512V6.75h-7.512v3.876ZM30.313 4.49H44.7v2.26h-.892v3.876h.892v2.26h-.892v6.202H41.39v-6.201h-7.512v5.038c.084.99-.34 1.442-1.273 1.357h-2.229v-1.938h.764c.212.043.319-.065.319-.323v-4.134h-1.083v-2.261h1.083V6.75h-1.146V4.49Zm23.937 7.041 1.783 2.455 2.228-2.455h-4.01Zm-2.992 0h-.064l-1.21 6.137c-.17.86-.509 1.27-1.018 1.227h-2.292v-1.873h.828c.255.043.403-.086.446-.388l1.655-8.591h-2.865V6.686l.573-2.454h2.1l-.445 1.744h.955l.382-1.744h2.356l-.382 1.744h6.43c.254.086.36-.043.318-.388V4.296h2.165v2.455c0 .948-.405 1.379-1.21 1.292h-8.085l-.319 1.485h9.614v2.068l-3.566 4.134.955 1.033c.212.302.51.431.891.388h1.656v1.744h-2.929c-.552-.043-.913-.173-1.082-.388l-1.082-1.033-1.146 1.033c-.34.259-.807.388-1.4.388h-2.61v-1.809h1.463c.34 0 .658-.107.955-.323l1.146-1.033-3.183-4.199Zm14.579 5.684h8.913v-1.033h-8.913v1.033Zm0-2.777h8.913v-.969h-8.913v.969Zm2.992-8.85V4.296h2.483v1.292h5.73v1.68h-5.73v1.615h1.846l.127-1.034h2.993l-.064 1.034h1.146v1.679h-8.531l-.891 1.098h4.902v-.581h2.737v.581h1.464v5.943c-.127.732-.572 1.163-1.336 1.292H63.48v-4.587h-.573v-1.937c.679.087 1.23-.15 1.656-.71l.89-1.099h-2.546V8.947h5.921v-1.68H63.29V5.589h5.539Zm15.852 6.524V4.813h.7c.297.043.446-.042.446-.258V4.23h1.846v1.292c0 .776-.297 1.142-.891 1.099v.969h.828v1.744h-.892v1.098h1.4V4.23h2.102v6.202h1.146c.212.043.318-.065.318-.323v-.775h-.955V7.59h1.019v-.905h-1.019V4.813h2.992v5.426c.042 1.379-.552 2.002-1.782 1.873h-1.72v.646h3.439v1.55L90.92 16.57l.828.516c.212.173.509.237.891.194h1.019v1.873h-1.401c-1.061.043-1.868-.172-2.42-.646l-.7-.58-1.145.774c-.382.259-.955.409-1.72.452h-2.037v-1.808h1.592c.424 0 .721-.065.891-.194l.7-.452-1.91-1.68.064-.13h3.183l.446.389 1.146-.97h-5.793v-1.55h3.565v-.646H84.68Zm-5.475-6.589h2.42V4.231h2.036v1.292h.637v1.745h-.637v.904h.637v2.002h-.637v7.106c.085 1.334-.467 1.959-1.655 1.873h-2.61v-1.808h1.783c.254 0 .382-.13.382-.388v-2.454l-.446 1.098c-.255.56-.637.818-1.146.775h-1.019V14.76h.191c.255.043.467-.194.637-.71l1.91-5.104V7.332h-2.483V5.523Zm26.357 12.532-.764-2.39h2.419l.509 1.357c.042.215.191.301.446.258h1.591v1.68h-2.8c-.765 0-1.232-.302-1.401-.905Zm-7.958-1.292.382-1.098h2.419l-.828 2.39c-.213.646-.786.947-1.719.905H95.44v-1.745h1.465c.296.087.53-.064.7-.452Zm3.756-11.885v-.582h2.419v.582h5.984v1.744h-5.984v.775h5.984l-.318 2.584h-2.292l.064-.905h-3.12l-2.482 1.486c-.128.087-.192.152-.192.194 0 .043.085.064.255.064h8.022v1.68h-8.277l-1.337.84c-.085.129-.106.216-.063.258 0 .043.084.043.255 0h6.748c.254.043.382-.065.382-.323v-.387h2.292v.968c0 .991-.446 1.465-1.337 1.422h-4.584v3.617h-2.356v-3.617h-5.73v-1.68l1.783-1.098h-1.782v-1.421l3.947-2.003h-1.91v.71H95.44v-2.39h5.92v-.774h-5.92V4.878h5.92Z" fill="#161E2E" mask="url(#b)"/><g mask="url(#b)"><g transform="translate(1)"><mask id="d" fill="#fff"><use xlink:href="#c"/></mask><path d="M11 19.126a8.126 8.126 0 1 1 0-16.252 8.126 8.126 0 1 1 0 16.252m5.325.106a3.443 3.443 0 0 1 3.587-3.19 1.25 1.25 0 0 0 1.219-.75c0-.003.003-.006.003-.01C21.71 13.926 22 12.485 22 11s-.291-2.925-.866-4.283a10.959 10.959 0 0 0-2.356-3.495A10.959 10.959 0 0 0 15.283.866 10.933 10.933 0 0 0 11 0C9.516 0 8.075.29 6.717.866a10.952 10.952 0 0 0-3.495 2.356A10.959 10.959 0 0 0 .866 6.717 10.933 10.933 0 0 0 0 11c0 1.484.292 2.925.866 4.283a10.959 10.959 0 0 0 2.356 3.495 10.954 10.954 0 0 0 3.495 2.357c1.358.574 2.8.865 4.283.865a10.932 10.932 0 0 0 4.601-1.006c.48-.222.77-.717.727-1.244a3.488 3.488 0 0 1-.003-.518" fill="#0D3CFB" mask="url(#d)"/></g><path d="M23.176 19.471a2.427 2.427 0 1 1-4.854 0 2.427 2.427 0 0 1 4.854 0" fill="#E10602"/><path d="m13.354 12.17 2.104-1.216-2.104-1.214a1.307 1.307 0 0 1-.653-1.132V7.512c0-.805.871-1.309 1.569-.906l3.057 1.766c.54.31.872.886.872 1.51v2.237c0 .623-.332 1.198-.871 1.51l-3.059 1.765a1.046 1.046 0 0 1-1.568-.906v-1.187c0-.467.249-.898.653-1.132m-2.708.001-2.104-1.216 2.104-1.214c.404-.234.653-.665.653-1.132V7.51c0-.804-.871-1.308-1.569-.905L6.673 8.372a1.74 1.74 0 0 0-.872 1.51v2.237c0 .623.332 1.198.871 1.51l3.058 1.765a1.047 1.047 0 0 0 1.57-.906l-.001-1.187c0-.467-.249-.898-.653-1.132" fill="#0D3CFB"/></g><path d="M117.583 10.389c.879 0 1.578-.183 2.083-.526.59-.415.892-1.05.892-1.906 0-.587-.169-1.051-.482-1.418-.313-.367-.747-.611-1.313-.709a2.28 2.28 0 0 0 1.048-.697 2.14 2.14 0 0 0 .386-1.27c0-.685-.23-1.223-.687-1.614-.47-.391-1.108-.587-1.903-.587h-3.843v8.727h3.819Zm-.217-4.913h-2.614v-2.97h2.626c.602 0 1.06.11 1.373.354.313.244.47.611.47 1.1 0 .501-.169.88-.482 1.137-.313.244-.77.379-1.373.379Zm.132 4.07h-2.746v-3.24h2.746c.663 0 1.169.123 1.518.392.361.269.554.684.554 1.246 0 .563-.217.99-.638 1.26-.362.22-.831.342-1.434.342Zm6.902 1.014c.808 0 1.47-.244 1.988-.709.422-.391.699-.88.843-1.491h-.963c-.157.44-.362.77-.627.99-.313.257-.735.391-1.24.391-.59 0-1.06-.195-1.398-.587-.337-.39-.518-.94-.566-1.65h4.915c-.024-1.1-.265-1.967-.723-2.578-.506-.685-1.265-1.027-2.265-1.027-.903 0-1.614.33-2.144.99-.53.623-.783 1.405-.783 2.334 0 1.027.265 1.834.82 2.445.53.586 1.252.892 2.143.892Zm1.952-3.813h-3.89c.06-.624.252-1.113.59-1.48.337-.366.782-.55 1.336-.55 1.18 0 1.843.673 1.964 2.03Zm5.18 3.642V9.57h-.796c-.216 0-.373-.061-.457-.159-.097-.098-.133-.269-.133-.501V4.889h1.542V4.07h-1.542V2.029l-.951.403V4.07h-1.253v.819h1.253V8.91c0 .477.096.831.3 1.076.218.268.591.403 1.097.403h.94Zm3.06.171c.577 0 1.095-.134 1.553-.391.385-.22.71-.501.952-.843v1.063H138V6.33c0-.733-.193-1.308-.554-1.723-.434-.477-1.084-.71-1.976-.71-.746 0-1.337.148-1.794.44-.506.319-.832.82-.964 1.48l.952.073c.096-.403.3-.709.626-.904.289-.196.662-.281 1.12-.281 1.084 0 1.626.525 1.626 1.588v.33l-1.493.025c-.94.012-1.663.195-2.169.538-.578.366-.855.904-.855 1.625 0 .514.193.941.578 1.271.374.318.868.477 1.494.477Zm.204-.77c-.386 0-.699-.098-.94-.281a.873.873 0 0 1-.349-.721c0-.917.699-1.381 2.096-1.406l1.433-.024v.538c0 .488-.229.928-.674 1.307a2.336 2.336 0 0 1-1.566.587Z" fill="#161E2E" fill-rule="nonzero"/></g></svg>